<svg xmlns="http://www.w3.org/2000/svg" width="234.552" height="61.906" viewBox="0 0 234.552 61.906"><g transform="translate(-61.724 -313)"><path d="M99.947,372.4v-5.254H98.735V366h1.212v-2.627h1.3V366H104v1.145h-2.761v5.085a1.288,1.288,0,0,0,1.465,1.449,2.741,2.741,0,0,0,1.263-.3v1.111a3.259,3.259,0,0,1-1.566.37A2.216,2.216,0,0,1,99.947,372.4Z" fill="#a9d62e"/><path d="M117.948,371.4V366h1.3v5.085a2.32,2.32,0,0,0,2.408,2.627,2.57,2.57,0,0,0,2.61-2.728V366h1.28V374.7h-1.28v-1.516a3.317,3.317,0,0,1-2.98,1.7A3.181,3.181,0,0,1,117.948,371.4Z" fill="#a9d62e"/><path d="M156.577,370.376v-.033a4.273,4.273,0,0,1,4.159-4.53,3.928,3.928,0,0,1,3.335,1.852v-5.254h1.3V374.7h-1.3v-1.751a3.916,3.916,0,0,1-3.335,1.936A4.247,4.247,0,0,1,156.577,370.376Zm7.544-.017v-.033a3.235,3.235,0,0,0-3.149-3.351,3.072,3.072,0,0,0-3.065,3.351v.033a3.135,3.135,0,0,0,3.065,3.368A3.251,3.251,0,0,0,164.121,370.359Z" fill="#a9d62e"/><path d="M183.89,373.778a3.6,3.6,0,0,0,2.745-1.23l.808.724a4.491,4.491,0,0,1-3.586,1.634,4.557,4.557,0,0,1-.169-9.093c2.576,0,4.058,2.054,4.058,4.614,0,.117,0,.252-.016.454h-6.9A3.043,3.043,0,0,0,183.89,373.778Zm2.543-3.941c-.152-1.583-1.061-2.93-2.779-2.93a3.007,3.007,0,0,0-2.829,2.93Z" fill="#a9d62e"/><path d="M201.673,371.4V366h1.3v5.085a2.32,2.32,0,0,0,2.407,2.627,2.57,2.57,0,0,0,2.61-2.728V366h1.28V374.7h-1.28v-1.516a3.316,3.316,0,0,1-2.98,1.7A3.18,3.18,0,0,1,201.673,371.4Z" fill="#a9d62e"/><path d="M223.463,370.376v-.033a4.272,4.272,0,0,1,4.159-4.53,3.926,3.926,0,0,1,3.334,1.852v-5.254h1.3V374.7h-1.3v-1.751a3.913,3.913,0,0,1-3.334,1.936A4.246,4.246,0,0,1,223.463,370.376Zm7.544-.017v-.033a3.236,3.236,0,0,0-3.149-3.351,3.072,3.072,0,0,0-3.065,3.351v.033a3.135,3.135,0,0,0,3.065,3.368A3.251,3.251,0,0,0,231.007,370.359Z" fill="#a9d62e"/><path d="M246.28,372.178v-.034c0-1.869,1.515-2.846,3.721-2.846a9.124,9.124,0,0,1,2.661.371v-.27c0-1.549-.943-2.357-2.576-2.357a6.06,6.06,0,0,0-2.644.623l-.388-1.061a7.134,7.134,0,0,1,3.166-.741,3.864,3.864,0,0,1,2.812.96,3.446,3.446,0,0,1,.91,2.56V374.7h-1.28v-1.3a3.816,3.816,0,0,1-3.132,1.482C247.9,374.889,246.28,373.963,246.28,372.178Zm6.4-.674V370.7a8.962,8.962,0,0,0-2.543-.37c-1.616,0-2.543.707-2.543,1.751v.034c0,1.094,1.011,1.734,2.189,1.734C251.382,373.845,252.679,372.885,252.679,371.5Z" fill="#a9d62e"/><path d="M135.877,337.474c-.6-.267-1.182-.512-1.727-.743-3.158-1.339-5.064-2.147-5.064-4.189,0-2.018,2.175-3.224,4.277-3.224,2.5,0,4.32,1.391,4.63,3.544l.048.336h2.867l-.044-.432c-.374-3.638-3.406-6.083-7.545-6.083-3.516,0-7.154,2.192-7.154,5.859,0,3.9,3.693,5.379,6.128,6.356q.772.328,1.473.618c3.857,1.606,5.793,2.412,5.793,5.062,0,2.065-2.021,3.4-5.149,3.4-3.1,0-5.275-1.377-6.13-3.879l-.09-.265h-2.856l.1.471c.811,3.918,4.235,6.352,8.934,6.352,4.853,0,8.114-2.443,8.114-6.078C142.48,340.577,139.354,338.934,135.877,337.474Z" fill="#002e70"/><path d="M173.284,328.37a5.271,5.271,0,0,0-.392-.359c-.044-.036-.088-.07-.132-.1a4.1,4.1,0,0,0-.618-.391,3.033,3.033,0,0,0-1.344-.346v12.293c0,2.735-1.994,8.382-8.159,8.382-4.108,0-6.371-2.867-6.371-8.073V328.638c-.131-.156-.261-.3-.391-.423a4.32,4.32,0,0,0-.933-.7,3.073,3.073,0,0,0-1.337-.392c-.08,0-.152,0-.216,0v13.308c0,6.4,3.245,10.223,8.681,10.223a10.522,10.522,0,0,0,8.749-4.4l.072,3.955h2.782V328.809C173.545,328.648,173.414,328.5,173.284,328.37Z" fill="#002e70"/><rect width="2.877" height="33.849" transform="translate(219.055 316.367)" fill="#002e70"/><path d="M261.3,330.265l-14.451,15.251a.7.7,0,0,1-1.033,0l-8-7.661c-1.4-1.5-3.671-2.849-5.074-1.353l13.057,13.08a.7.7,0,0,0,1.032,0l19.545-20.627C264.977,327.446,262.706,328.777,261.3,330.265Z" fill="#002e70"/><path d="M235.852,332.541,250.3,317.29a.7.7,0,0,1,1.033,0l8,7.661c1.4,1.5,3.671,2.85,5.074,1.353l-13.056-13.079a.7.7,0,0,0-1.033-.005l-19.545,20.627C232.17,335.36,234.441,334.029,235.852,332.541Z" fill="#a9d62e"/><path d="M75.223,338.693c4.38-1.236,7.178-5.131,7.178-10.075,0-6.812-5.079-10.488-9.858-10.488H61.724v32.085H64.6V339.061h7.555l7.286,11.154h3.382ZM64.21,336.642V320.55h8.333c3.839,0,7.372,3,7.372,8.068,0,5.026-3.533,8.024-7.372,8.024Z" fill="#002e70"/><path d="M115.3,338.846c0-6.934-4.914-12.163-11.43-12.163A11.523,11.523,0,0,0,92.44,338.537c0,7.023,4.935,12.119,11.734,12.119a11.365,11.365,0,0,0,6.894-2.205,9.8,9.8,0,0,0,3.426-4.634l.141-.434-2.63-.432-.12.284a8.006,8.006,0,0,1-7.667,4.7,8.445,8.445,0,0,1-8.881-8.21H115.3ZM95.34,337.308a8.525,8.525,0,0,1,17.005,0Z" fill="#002e70"/><path d="M207.795,338.846c0-6.934-4.913-12.163-11.429-12.163a11.524,11.524,0,0,0-11.43,11.854c0,7.023,4.935,12.119,11.735,12.119a11.367,11.367,0,0,0,6.894-2.205,9.8,9.8,0,0,0,3.425-4.634l.141-.434-2.63-.432-.12.284a8,8,0,0,1-7.667,4.7,8.444,8.444,0,0,1-8.88-8.21h19.961Zm-19.958-1.538a8.525,8.525,0,0,1,17,0Z" fill="#002e70"/><path d="M296.276,338.846c0-6.934-4.913-12.163-11.429-12.163a11.523,11.523,0,0,0-11.429,11.854c0,7.023,4.934,12.119,11.734,12.119a11.367,11.367,0,0,0,6.894-2.205,9.8,9.8,0,0,0,3.426-4.634l.14-.434-2.63-.432-.12.284a8,8,0,0,1-7.666,4.7,8.445,8.445,0,0,1-8.881-8.21h19.961Zm-19.958-1.538a8.525,8.525,0,0,1,17.005,0Z" fill="#002e70"/><path d="M261.3,330.265l-14.451,15.251a.7.7,0,0,1-1.033,0l-8-7.661c-1.4-1.5-3.671-2.849-5.074-1.353l13.057,13.08a.7.7,0,0,0,1.032,0l19.545-20.627C264.977,327.446,262.706,328.777,261.3,330.265Z" fill="#002e70"/><path d="M235.852,332.541,250.3,317.29a.7.7,0,0,1,1.033,0l8,7.661c1.4,1.5,3.671,2.85,5.074,1.353l-13.056-13.079a.7.7,0,0,0-1.033-.005l-19.545,20.627C232.17,335.36,234.441,334.029,235.852,332.541Z" fill="#a9d62e"/></g></svg>